<svg width="60" height="56" viewBox="0 0 60 56" fill="none" xmlns="http://www.w3.org/2000/svg">
<path d="M21.016 12.5486H26.9438V39.4562C26.9438 39.8061 27.2326 40.0925 27.5856 40.0925H32.3984C32.7513 40.0925 33.0401 39.8061 33.0401 39.4562V12.5486H38.984C39.5214 12.5486 39.8182 11.9362 39.4893 11.5226L30.5053 0.24414C30.4453 0.168088 30.3686 0.106581 30.2811 0.0642821C30.1935 0.0219828 30.0974 0 30 0C29.9026 0 29.8065 0.0219828 29.7189 0.0642821C29.6314 0.106581 29.5547 0.168088 29.4947 0.24414L20.5107 11.5146C20.1818 11.9362 20.4786 12.5486 21.016 12.5486ZM59.3583 37.0701H54.5455C54.1925 37.0701 53.9037 37.3564 53.9037 37.7064V49.9551H6.09626V37.7064C6.09626 37.3564 5.80749 37.0701 5.45455 37.0701H0.641711C0.28877 37.0701 0 37.3564 0 37.7064V53.4548C0 54.8626 1.14706 56 2.56684 56H57.4332C58.8529 56 60 54.8626 60 53.4548V37.7064C60 37.3564 59.7112 37.0701 59.3583 37.0701Z" fill="#01ABAA"/>
</svg>
